<svg width="600" height="400" viewBox="0 0 600 400" xmlns="http://www.w3.org/2000/svg">
  <!-- Background -->
  <rect width="600" height="400" fill="#f0f4f8"/>
  
  <!-- Book -->
  <rect x="150" y="120" width="300" height="200" fill="#ffffff" stroke="#498055" stroke-width="3" rx="5"/>
  <line x1="300" y1="120" x2="300" y2="320" stroke="#498055" stroke-width="2"/>
  
  <!-- Lines on left page -->
  <line x1="180" y1="160" x2="280" y2="160" stroke="#C59EEF" stroke-width="2"/>
  <line x1="180" y1="190" x2="280" y2="190" stroke="#C59EEF" stroke-width="2"/>
  <line x1="180" y1="220" x2="280" y2="220" stroke="#C59EEF" stroke-width="2"/>
  <line x1="180" y1="250" x2="280" y2="250" stroke="#C59EEF" stroke-width="2"/>
  
  <!-- Lines on right page -->
  <line x1="320" y1="160" x2="420" y2="160" stroke="#C59EEF" stroke-width="2"/>
  <line x1="320" y1="190" x2="420" y2="190" stroke="#C59EEF" stroke-width="2"/>
  <line x1="320" y1="220" x2="420" y2="220" stroke="#C59EEF" stroke-width="2"/>
  <line x1="320" y1="250" x2="420" y2="250" stroke="#C59EEF" stroke-width="2"/>
  
  <!-- Pencil -->
  <rect x="400" y="260" width="60" height="15" fill="#19F3CF" transform="rotate(-30 430 267.5)"/>
  <polygon points="468,250 480,265 468,280" fill="#498055"/>
  
  <!-- Decorative elements -->
  <circle cx="80" cy="80" r="30" fill="#C59EEF" opacity="0.3"/>
  <circle cx="520" cy="320" r="40" fill="#19F3CF" opacity="0.3"/>
</svg>
